# xmcd CD database file
#
# Track frame offsets:
#	150
#	14350
#	30287
#	50325
#	64000
#	79175
#	90875
#	108587
#	124450
#	144575
#	159100
#	169575
#
# Disc length: 2412 seconds
#
# Revision: 2
# Processed by: cddbd v1.5.2PL0 Copyright (c) Steve Scherf et al.
# Submitted via: CDex 1.51
#
DISCID=8b096a0c
DTITLE=Matti Esko - L‰mmin ja niin tuttu
DYEAR=1993
DGENRE=Pop
TTITLE0=L‰mmin ja niin tuttu
TTITLE1=Ei itkut en‰‰ auta
TTITLE2=Kun kuiskaat hiljaa
TTITLE3=Minne saan ripustaa takkini
TTITLE4=Kaipuu
TTITLE5=Kes‰n suukot talvi vei
TTITLE6=Maria
TTITLE7=Hyv‰n mielen sulle antaisin
TTITLE8=Onnea ja n‰kemiin
TTITLE9=Pohjantuulen haitari soi
TTITLE10=Oon tiell‰ taas
TTITLE11=Viestini kulkee
EXTD=YEAR: 1993
EXTT0=
EXTT1=
EXTT2=
EXTT3=
EXTT4=
EXTT5=
EXTT6=
EXTT7=
EXTT8=
EXTT9=
EXTT10=
EXTT11=
PLAYORDER=
